<?xml version="1.0" encoding="UTF-8" standalone="no"?>
<!-- Created with Inkscape (http://www.inkscape.org/) -->

<svg
   version="1.1"
   id="svg1"
   width="1365.3333"
   height="1365.3333"
   viewBox="0 0 1365.3333 1365.3333"
   xmlns="http://www.w3.org/2000/svg"
   xmlns:svg="http://www.w3.org/2000/svg">
  <defs
     id="defs1">
    <linearGradient
       id="swatch6">
      <stop
         style="stop-color:#000000;stop-opacity:1;"
         offset="0"
         id="stop6" />
    </linearGradient>
  </defs>
  <g
     id="g1">
    <path
       style="fill:#ff0000;stroke:none;stroke-width:2.27238;stroke-opacity:1"
       d="M 613.6974,1363.1166 C 382.21892,1342.4193 195.91029,1245.0101 85.642928,1087.0294 52.629118,1039.7302 24.065188,972.85841 11.87309,914.32485 -24.323494,740.54687 23.156512,574.97079 141.83808,461.1006 226.08587,380.2682 318.97819,338.82069 453.57941,322.00511 c 8.26757,-1.03285 14.36035,-2.88211 13.53955,-4.10946 -0.82082,-1.22733 -13.11337,-8.57306 -27.31677,-16.32384 -54.35087,-29.65924 -134.07692,-86.36869 -129.99786,-92.46799 1.37416,-2.05472 16.64884,-2.42594 46.4843,-1.12971 123.57334,5.36886 194.94925,26.87163 268.50829,80.89111 12.78644,9.38995 23.7579,17.07264 24.38104,17.07264 0.62314,0 2.03853,-18.67728 3.14532,-41.50505 2.22555,-45.90171 7.79585,-79.96274 19.85682,-121.41916 18.83704,-64.747421 52.56617,-121.040264 81.64278,-136.2592458 23.65781,-12.3827261 56.04527,-7.11663085 66.03591,10.7372468 7.5676,13.523809 5.76629,21.453916 -9.37539,41.273997 -34.32355,44.928692 -54.33082,89.311802 -67.43704,149.598942 -5.96245,27.42657 -13.53611,89.05115 -11.22559,91.33899 0.58174,0.57602 13.5488,-7.6361 28.81566,-18.24915 56.83734,-39.51155 110.03495,-58.45681 196.37782,-69.93599 27.57607,-3.66621 96.86665,-5.30751 98.85035,-2.3415 5.7383,8.58052 -120.94968,97.72164 -151.70187,106.74144 -12.3737,3.62927 -4.92894,6.57693 21.81725,8.63826 98.88002,7.62058 207.33712,54.18609 281.09252,120.6857 95.0611,85.7092 145.7659,190.3754 156.5826,323.22146 13.5745,166.71823 -55.644,323.9518 -192.3096,436.8407 -78.1833,64.5811 -188.15535,116.5315 -297.47094,140.524 -72.30887,15.8703 -189.17988,23.636 -260.17716,17.2881 z M 547.96151,612.11643 c 50.73639,-38.64158 121.21147,-77.05131 141.37564,-77.05131 5.49064,0 19.1324,6.6009 36.95442,17.88125 32.8588,20.79787 83.42454,45.44122 105.89342,51.6075 8.61372,2.36392 21.43166,4.22781 28.48431,4.14199 l 12.82298,-0.15599 -10.62433,-7.85371 c -5.84338,-4.31955 -37.69885,-28.82466 -70.78993,-54.45587 -73.30606,-56.78034 -112.93597,-85.81682 -117.20801,-85.87726 -1.76672,-0.0248 -18.78632,10.64901 -37.82127,23.72002 -46.59559,31.99652 -97.9512,80.06846 -109.97714,102.94527 -9.54452,18.1564 -14.78233,45.1347 -8.76285,45.1347 1.83966,0 15.18339,-9.01642 29.65276,-20.03652 z M 375.34189,501.12727 c 47.89923,-11.32617 93.7692,-37.04803 123.07287,-69.0138 6.13835,-6.69598 10.0715,-12.79455 8.74031,-13.55235 -2.93489,-1.67077 -53.3898,10.21751 -85.94034,20.24937 -50.41498,15.53764 -141.5369,61.47107 -136.59734,68.85703 3.04973,4.56012 61.64373,0.33616 90.7245,-6.54025 z m 700.76191,6.23118 c 5.5805,-3.27208 -23.8962,-21.99723 -63.9334,-40.61399 -45.7475,-21.2719 -106.06521,-39.65571 -158.56153,-48.32673 l -10.42812,-1.72245 6.79049,8.81278 c 20.60561,26.74225 57.67708,52.17159 94.84761,65.06107 39.76261,13.78841 119.09975,23.93436 131.28495,16.78932 z"
       id="path6" />
  </g>
</svg>
